<?xml version="1.0" encoding="iso-8859-1"?>
<!-- Generator: Adobe Illustrator 19.0.0, SVG Export Plug-In . SVG Version: 6.00 Build 0)  -->
<svg version="1.1" id="Layer_1" xmlns="http://www.w3.org/2000/svg" xmlns:xlink="http://www.w3.org/1999/xlink" x="0px" y="0px"
	 viewBox="0 0 512 512" style="enable-background:new 0 0 512 512;" xml:space="preserve">
<path style="fill:#CC5496;" d="M256,512c141.157,0,255.996-114.847,255.996-256.012C511.996,114.836,397.157,0,256,0
	S0.004,114.836,0.004,255.988C0.004,397.153,114.845,512,256,512z M256,452.373c-40.551,0-79.06-12.142-112.004-35.22
	c13.435-22.289,54.273-78.14,141.747-111.507c22.05,59.78,33.279,110.792,37.837,134.72
	C302.003,448.339,279.318,452.373,256,452.373z M380.7,407.476c-4.949-24.181-14.936-66.728-32.27-116.858
	c8.766-0.873,17.743-1.313,26.845-1.313c31.771,0,58.281,5.315,72.279,8.808C438.204,340.831,414.5,379.501,380.7,407.476z
	 M416.687,144.135c19.67,28.161,31.665,61.224,34.638,95.445c-18.038-2.961-48.942-6.968-84.116-6.968
	c-13.939,0-27.435,0.64-40.247,1.905c-0.336-0.803-0.676-1.609-1.019-2.419c-2.674-6.251-5.543-12.665-8.567-19.166
	C369.639,189.487,401.31,160.774,416.687,144.135z M256,60.249c44.015,0,86.561,14.815,121.036,41.944
	c-11.886,13.289-38.973,38.59-86.647,58.294c-23.768-42.505-48.158-78.541-62.104-98.278C237.43,60.906,246.7,60.249,256,60.249z
	 M163.627,83.425c11.501,16.197,36.87,52.964,62.481,96.992c-68.888,16.61-129.42,20.215-158.314,20.917
	C82.521,151.158,117.279,108.3,163.627,83.425z M255.537,234.842c2.232,4.51,4.371,8.956,6.419,13.318
	c-87.014,29.905-141.033,96.599-161.911,126.826c-24.793-32.507-38.806-71.861-40.025-112.824
	C90.315,261.846,171.091,258.571,255.537,234.842z"/>
<g>
</g>
<g>
</g>
<g>
</g>
<g>
</g>
<g>
</g>
<g>
</g>
<g>
</g>
<g>
</g>
<g>
</g>
<g>
</g>
<g>
</g>
<g>
</g>
<g>
</g>
<g>
</g>
<g>
</g>
</svg>
