<?xml version="1.0" encoding="iso-8859-1"?>
<!-- Generator: Adobe Illustrator 19.0.0, SVG Export Plug-In . SVG Version: 6.00 Build 0)  -->
<svg version="1.1" id="Layer_1" xmlns="http://www.w3.org/2000/svg" xmlns:xlink="http://www.w3.org/1999/xlink" x="0px" y="0px"
	 viewBox="0 0 511.998 511.998" style="enable-background:new 0 0 511.998 511.998;" xml:space="preserve">
<g>
	<path style="fill:#5286FA;" d="M146.986,399.241c-2.969,0-5.77-0.663-8.092-1.921l-35.531-19.214
		c-0.536-0.291-0.896-0.378-1.085-0.404c-0.069,0.183-0.164,0.542-0.164,1.147v11.043c0,3.327,2.581,7.945,5.412,9.688
		L245.22,484.37V324.055l-86.856,71.386C155.428,397.858,151.281,399.241,146.986,399.241z"/>
	<path style="fill:#5286FA;" d="M149.307,375.424L149.307,375.424c2.057,0,4.107-0.672,5.352-1.752l74.896-65
		c0.67-0.582,1.03-1.21,0.988-1.723c-0.044-0.517-0.505-1.074-1.263-1.536L95.527,224.212c-1.018-0.619-2.399-0.96-3.89-0.96
		c-2.032,0-3.99,0.628-5.232,1.683L8.434,291.119c-0.649,0.552-1.014,1.15-0.976,1.602c0.041,0.452,0.501,0.979,1.237,1.411
		l136.825,80.382C146.516,375.101,147.861,375.424,149.307,375.424z"/>
	<path style="fill:#5286FA;" d="M92.544,192.554c1.545,0,2.974-0.353,4.02-0.993l143.24-87.555c0.732-0.448,1.189-0.993,1.222-1.461
		c0.034-0.469-0.34-1.073-1-1.623l-86.246-71.657c-1.233-1.023-3.168-1.637-5.177-1.637c-1.526,0-2.941,0.355-3.978,0.997
		L1.216,117.168c-0.729,0.448-1.182,0.993-1.214,1.454c-0.032,0.462,0.346,1.062,1.009,1.604l86.301,70.698
		C88.559,191.944,90.517,192.554,92.544,192.554z"/>
	<path style="fill:#5286FA;" d="M510.786,117.186L367.4,28.659c-1.039-0.64-2.454-0.993-3.981-0.993
		c-2.006,0-3.939,0.612-5.176,1.635L272,100.928c-0.662,0.549-1.036,1.154-1,1.619c0.035,0.467,0.49,1.013,1.222,1.461
		l143.239,87.555c1.05,0.64,2.477,0.993,4.022,0.993c2.027,0,3.983-0.612,5.23-1.632l86.276-70.682
		c0.662-0.542,1.039-1.14,1.007-1.602C511.968,118.177,511.515,117.634,510.786,117.186z"/>
	<path style="fill:#5286FA;" d="M503.594,291.122l-77.99-66.187c-1.242-1.055-3.196-1.683-5.23-1.683
		c-1.491,0-2.874,0.34-3.893,0.96l-133.743,81.201c-0.759,0.462-1.217,1.02-1.261,1.533c-0.044,0.513,0.316,1.141,0.986,1.722
		l74.937,65.005c1.245,1.078,3.295,1.75,5.352,1.75c1.445,0,2.792-0.325,3.791-0.91l136.789-80.38
		c0.736-0.434,1.198-0.961,1.235-1.411C504.609,292.272,504.244,291.674,503.594,291.122z"/>
	<path style="fill:#5286FA;" d="M408.639,378.105l-35.498,19.212c-2.323,1.258-5.123,1.923-8.093,1.923
		c-4.295,0-8.441-1.381-11.376-3.794l-86.865-71.387v159.394c0,0.339,0.03,0.607,0.067,0.804c0.182-0.069,0.422-0.182,0.718-0.365
		l136.883-84.309c2.833-1.745,5.414-6.363,5.414-9.69V378.85c0-0.603-0.093-0.96-0.162-1.141
		C409.518,377.733,409.162,377.825,408.639,378.105z"/>
</g>
<g>
</g>
<g>
</g>
<g>
</g>
<g>
</g>
<g>
</g>
<g>
</g>
<g>
</g>
<g>
</g>
<g>
</g>
<g>
</g>
<g>
</g>
<g>
</g>
<g>
</g>
<g>
</g>
<g>
</g>
</svg>
