<?xml version="1.0" encoding="iso-8859-1"?>
<!-- Generator: Adobe Illustrator 19.0.0, SVG Export Plug-In . SVG Version: 6.00 Build 0)  -->
<svg version="1.1" id="Layer_1" xmlns="http://www.w3.org/2000/svg" xmlns:xlink="http://www.w3.org/1999/xlink" x="0px" y="0px"
	 viewBox="0 0 512 512" style="enable-background:new 0 0 512 512;" xml:space="preserve">
<path style="fill:#F1CB30;" d="M510.783,200.261c-1.5-2.449-4.167-3.944-7.041-3.944h-26.659c-3.131,0-5.995,1.772-7.393,4.577
	l-34.763,69.791l-34.852-69.8c-1.399-2.798-4.26-4.568-7.389-4.568h-29.465c-1.878,0-3.665,0.638-5.099,1.761
	c-9.386-4.18-21.056-6.288-34.94-6.288c-43.875,0-57.778,19.084-62.18,31.435c-11.168-19.263-31.909-31.106-57.785-31.106
	c-16.782,0-28.741,4.081-36.956,8.783v-44.189c0-4.562-3.696-8.258-8.258-8.258h-25.247c-4.562,0-8.258,3.696-8.258,8.258v54.277
	c-11.262-11.48-28.466-19.197-52.183-19.197C25.681,191.792,0,215.884,0,259.63c0,42.551,26.006,65.984,73.229,65.984
	c25.848,0,41.49-7.781,50.931-16.693c-0.104,2.603-0.19,4.383-0.192,4.428c-0.109,2.258,0.71,4.463,2.268,6.098
	c1.557,1.638,3.721,2.565,5.98,2.565h24.716c3.776,0,7.009-2.548,7.969-6.091c8.369,5.217,20.817,10.032,38.263,10.032
	c22.052,0,40.734-8.768,52.724-23.904c8.228,15.168,26.097,24.213,50.027,24.213c19.033,0,32.263-5.052,41.028-10.554
	c0.882,3.64,4.164,6.301,8.024,6.301h23.258c0.013,0,0.026,0,0.026,0c4.568,0,8.265-3.696,8.265-8.258
	c0-0.507-0.045-1.003-0.132-1.483c-0.203-2.316-0.819-9.743-0.819-14.648v-33.531l26.216,49.19l-20.089,38.164
	c-1.346,2.56-1.257,5.639,0.238,8.114c1.496,2.477,4.179,3.99,7.071,3.99h27.954c3.105,0,5.949-1.742,7.358-4.509l76.788-150.716
	C512.405,205.765,512.284,202.711,510.783,200.261z M71.449,225.034c12.972,0,22.305,5.86,25.61,15.477H44.291
	C48.483,230.405,60.248,225.034,71.449,225.034z M96.311,279.719c-0.446,1.346-4.932,13.15-24.647,13.15
	c-14.253,0-24.986-7.561-28.406-19.167h60.849C100.44,273.702,97.341,276.201,96.311,279.719z M197.019,292.369
	c-21.21,0-30.703-16.797-30.703-33.442c0-16.519,9.442-33.191,30.532-33.191c18.275,0,30.548,13.246,30.548,32.961
	C227.397,278.208,214.622,292.369,197.019,292.369z M301.629,234.108c0.007-0.091,1.257-9.242,19.719-9.242
	c4.884,0,20.014,0.922,22.186,12.035h-22.186c-7.668,0-14.722,0.416-21.159,1.245C300.993,236.987,301.509,235.608,301.629,234.108z
	 M269.309,247.901c-0.292-2.107-0.666-4.174-1.123-6.192h15.084C277.976,243.354,273.32,245.418,269.309,247.901z M312.067,293.18
	c-6.914,0-18.508-1.541-18.508-11.855c0-2.679,0-6.725,11.944-9.271c9.373-1.998,22.718-2.294,38.258-2.339
	C343.44,275.489,340.151,293.18,312.067,293.18z"/>
<g>
</g>
<g>
</g>
<g>
</g>
<g>
</g>
<g>
</g>
<g>
</g>
<g>
</g>
<g>
</g>
<g>
</g>
<g>
</g>
<g>
</g>
<g>
</g>
<g>
</g>
<g>
</g>
<g>
</g>
</svg>
