<?xml version="1.0" encoding="iso-8859-1"?>
<!-- Generator: Adobe Illustrator 19.0.0, SVG Export Plug-In . SVG Version: 6.00 Build 0)  -->
<svg version="1.1" id="Layer_1" xmlns="http://www.w3.org/2000/svg" xmlns:xlink="http://www.w3.org/1999/xlink" x="0px" y="0px"
	 viewBox="0 0 512.002 512.002" style="enable-background:new 0 0 512.002 512.002;" xml:space="preserve">
<path style="fill:#8DC63F;" d="M255.99,31.685C114.835,31.685,0,123.517,0,236.395c0,56.754,29.516,110.965,81.23,149.603
	L52.285,469.35c-1.055,3.036-0.251,6.41,2.058,8.641c1.567,1.52,3.639,2.325,5.746,2.325c0.993,0,2-0.18,2.961-0.552l121.57-46.757
	c23.184,5.361,47.18,8.078,71.371,8.078c141.165,0,256.01-91.823,256.01-204.691C512,123.517,397.155,31.685,255.99,31.685z
	 M356.603,295.339c-26.751,16.8-62.484,26.051-100.613,26.051s-73.858-9.252-100.61-26.051
	c-25.555-16.049-39.629-36.985-39.629-58.944c0-21.971,14.073-42.911,39.629-58.961c26.748-16.803,62.481-26.054,100.61-26.054
	c38.132,0,73.862,9.252,100.613,26.054c25.555,16.052,39.629,36.99,39.629,58.961C396.232,258.356,382.158,279.292,356.603,295.339z
	"/>
<g>
</g>
<g>
</g>
<g>
</g>
<g>
</g>
<g>
</g>
<g>
</g>
<g>
</g>
<g>
</g>
<g>
</g>
<g>
</g>
<g>
</g>
<g>
</g>
<g>
</g>
<g>
</g>
<g>
</g>
</svg>
